<?xml version="1.0" encoding="UTF-8"?>
<svg id="Ebene_1" data-name="Ebene 1" xmlns="http://www.w3.org/2000/svg" viewBox="0 0 807.39 224.01">
  <defs>
    <style>
      .cls-1 {
        fill: #009bff;
      }
    </style>
  </defs>
  <g>
    <path class="cls-1" d="M262.04,92.73l7.56.04.1-16.56,14.91.09-.1,16.56,12.83.08-.07,11.39-12.83-.08-.12,20.81c-.03,4.97,2.75,7.06,6.79,7.08,2.38.01,4.76-.39,6.53-1l2,11.92c-2.91,1.33-7.26,2.13-11.09,2.11-11.08-.07-19.21-7.05-19.14-19.37l.13-21.63-7.56-.04.07-11.39Z"/>
    <path class="cls-1" d="M359.2,117.32l-.04,6.21-36.75-.22c.99,7.15,5.53,10.28,15.26,10.44,5.49.03,10.77-.97,15.23-3.01l2.52,10.88c-5.5,2.97-11.72,4.38-17.83,4.35-18.63-.11-30.37-10.32-30.27-26.99.08-14.18,9.89-26.75,26.66-26.86,14.8.09,25,8.84,25.21,25.2ZM322.89,113.59l21.32.13c-.58-6.73-4.6-9.34-9.78-9.37-6.52-.04-10.16,3.25-11.55,9.25Z"/>
    <path class="cls-1" d="M372.07,93.38l14.91.09-.03,5.8.62.21c3.34-4.02,8.32-6.99,14.22-6.95h1.45s-.08,13.88-.08,13.88h-2.48c-5.49-.05-10.26,1.79-13.8,4.67l-.2,34.26-14.91-.09.31-51.86Z"/>
    <path class="cls-1" d="M416.34,93.63l14.91.09-.03,5.8.62.21c3.34-4.02,8.32-6.99,14.22-6.95h1.45s-.08,13.88-.08,13.88h-2.48c-5.49-.05-10.26,1.79-13.8,4.67l-.2,34.26-14.91-.09.31-51.86Z"/>
    <path class="cls-1" d="M494.19,97.6l.52-.31.02-3.21,14.91.09-.31,51.76-14.91-.09.03-4.97-.62-.21c-3.23,3.6-8.63,6.16-15.25,6.12-13.98-.08-24.88-12.05-24.79-27.06.09-15.01,11.55-26.85,26.14-26.76,6.52.04,10.96,1.93,14.26,4.64ZM494.53,127.63l.11-18.84c-3.2-2.19-7.64-3.56-12.92-3.59-7.14-.04-12.97,6.03-13.03,14.62-.05,8.49,5.71,14.73,12.85,14.78,5.28.03,10.26-1.8,12.98-6.96Z"/>
    <path class="cls-1" d="M522.3,94.25l8.38.05.1-16.56,8.28.05-.1,16.56,15.32.09-.04,7.25-15.32-.09-.16,27.43c-.04,7.25,3.77,10.38,9.25,10.41,3.11.02,5.8-.28,8.19-1.3l2.03,6.43c-3.11,1.53-6.64,2.13-10.26,2.11-10.04-.06-17.56-6.42-17.49-17.7l.16-27.43-8.38-.05.04-7.25Z"/>
    <path class="cls-1" d="M614.92,115.5l-.04,6.21-39.44-.24c.55,11.91,7.14,18.47,19.56,18.75,5.49.03,10.77-.97,15.23-3.01l1.72,6.74c-5.29,2.35-11.1,3.56-17,3.52-16.15-.1-27.89-10.31-27.79-26.97.08-14.18,10.2-26.75,25-26.87,13.35.08,21.28,7.89,22.75,21.88ZM576.1,114.23l30.43.18c-.36-8.49-6.44-13.5-14.31-13.54-8.49-.05-14.22,5.92-16.12,13.36Z"/>
    <path class="cls-1" d="M667.8,99.25l.52-.2.02-3.93,8.28.05-.31,51.76-8.28-.05.03-5.69-.62-.31c-3.54,4.12-9.46,6.98-16.92,6.94-13.87-.08-24.88-12.05-24.79-27.06.09-15.01,11.65-26.85,26.14-26.76,7.35.04,12.31,2.25,15.91,5.27ZM668.13,131.96l.15-25.46c-3.71-3.23-9.18-5.23-15.39-5.27-10.25-.06-18.79,8.69-18.85,19.56-.06,10.77,8.37,19.72,18.62,19.78,6.31.04,12.23-2.31,15.47-8.6Z"/>
    <path class="cls-1" d="M771.86,147.51l-8.28-.05.18-31.05c.06-10.15-5.09-14.52-11.4-14.56-6.31-.04-12.44,2.62-15.69,9.53.1.93.2,1.86.19,2.8l-.2,33.12-8.28-.05.2-33.12c.05-8.7-5.1-12.45-11.42-12.49-6.73-.04-13.06,2.61-16.52,9.63l-.21,35.81-8.28-.05.31-51.76,8.28.05-.04,6.52.62.21c3.65-4.53,9.98-7.71,17.95-7.66,6.52.04,12.3,3.18,15.27,9.1,4.59-5.56,11.23-8.94,19.93-8.89,9.83.06,17.66,7.46,17.57,21.84l-.18,31.05Z"/>
  </g>
  <path class="cls-1" d="M216.71,94.78c-.49-15.9-11.27-32.1-34.26-32.44h-19.15c.2-3.75-.15-6.92-.48-8.85-1.64-9.71-8.44-19.16-18.21-25.28-9.84-6.17-21.27-8.02-31.37-5.08-17.2,5.01-28.64,21.43-27.92,39.18h-14.66s0,0,0,0c-.04,0-.09,0-.13,0-13.96-.28-25.03,5.16-31.16,15.36-6.73,11.22-6.68,26.83.12,38.84,3.16,5.58,7.5,9.69,12.53,12.06.01,2.8.34,5.57,1.01,8.25,4.34,17.35,20.26,29.42,38,29.41.14,0,.29,0,.43-.01.03,6.9.47,12.73,4.36,19.43,6.01,10.35,17.06,16.55,29.55,16.59h.11c12.55,0,23.68-6.19,29.79-16.57,2.75-4.67,3.8-13.23,4.21-19.36,3.05.73,6.12,1.13,9.16,1.13,3.88,0,7.7-.61,11.32-1.84,17.85-6.07,28.77-24.5,25.81-43.2,7.53-7.17,11.27-17.74,10.96-27.63ZM94.38,62.01c-.19,0-.38,0-.57,0-.17,0-.48,0-.85-.01-.58-14.29,8.61-27.5,22.42-31.52,8.01-2.33,17.18-.8,25.16,4.21,7.94,4.98,13.45,12.48,14.73,20.07.22,1.33.58,4.15.34,7.57-.16,2.36-.61,5.01-1.58,7.66-.72,1.97-1.71,3.93-3.11,5.78-5.97,7.89-11.38,8.95-19.29,3.8-2.96-1.93-5.59-3.9-8.13-5.81-1.72-1.29-3.42-2.56-5.16-3.77-5.3-3.68-10.98-6.72-18.79-7.66-1.62-.2-3.33-.31-5.16-.31ZM91.12,157.74c0,.17-.02.48-.04.84h-.07c-14.27,0-27.08-9.69-30.56-23.61-.35-1.39-.57-2.81-.69-4.24-.21-2.52-.07-5.09.4-7.66.83-4.5,2.66-8.97,5.46-13.08,5.28-7.74,12.99-12.96,20.62-13.94.83-.11,2.24-.24,4-.24,4.49,0,11.31.89,16.82,5.4,7.66,6.27,8.51,11.71,3.05,19.42-2.04,2.89-4.12,5.43-6.12,7.9-1.68,2.07-3.33,4.1-4.87,6.23-3.69,5.11-6.68,10.76-7.67,18.6-.18,1.39-.3,2.84-.34,4.39ZM148.65,181.8c-4.72,8.02-13.38,12.8-23.19,12.8h-.09c-9.74-.03-18.32-4.8-22.95-12.78-3.38-5.82-3.36-10.58-3.32-18.47v-2.52c0-2.41,0-4.77,0-7.06,1.2-8.57,5.35-13.68,10.82-20.41,2.08-2.56,4.24-5.21,6.43-8.3,7.88-11.13,6.43-20.87-4.45-29.78-9.78-8.01-21.9-7.44-26.66-6.83-9.76,1.26-19.47,7.7-25.96,17.22-3.13,4.59-5.27,9.57-6.39,14.65-3.3-2.25-5.5-5.34-6.76-7.58-5.4-9.54-5.49-22.34-.21-31.13,4.59-7.64,12.69-11.66,23.49-11.66.37,0,.75,0,1.13.01.1,0,.21,0,.31,0h28.22c8.01,1.08,13.15,4.91,19.81,9.91,2.64,1.98,5.37,4.03,8.55,6.1,4.58,2.98,8.87,4.48,12.92,4.48,6.06,0,11.58-3.35,16.66-10.07,2.54-3.36,4.11-6.94,5.05-10.39h20.29c19.14.3,26.34,13.66,26.69,25.02.33,10.61-4.01,18.47-10.18,23.2-.73.01-1.38.03-1.68.05-11.21.63-17.17-3.45-25.43-9.09-2.72-1.86-5.54-3.79-8.81-5.72-11.74-6.93-21.33-4.67-29.3,6.9-7.17,10.41-5.6,22.44-4.59,27.13,2.07,9.63,9.29,18.76,19.31,24.45,1.17.66,2.36,1.25,3.57,1.79-.31,6.46-1.3,14.7-3.28,18.07ZM177.47,158.36c-5.53,1.88-11.72,1.88-17.76.12-2.57-.75-5.12-1.82-7.57-3.21-.03-.02-.06-.03-.08-.05-8.11-4.62-13.91-11.85-15.52-19.34-.62-2.9-2.22-13,3.41-21.18,3.46-5.02,6.81-7.44,10.78-7.44,2.48,0,5.19.94,8.32,2.79,3.05,1.8,5.76,3.65,8.38,5.44,4.52,3.09,8.91,6.07,14.13,8.07,4.51,1.72,9.65,2.7,16.05,2.34.17,0,.48-.02.85-.02.05.55.05,1.11.07,1.66.44,13.63-7.98,26.37-21.07,30.83Z"/>
</svg>