<?xml version="1.0" encoding="UTF-8"?>
<svg id="Ebene_1" data-name="Ebene 1" xmlns="http://www.w3.org/2000/svg" viewBox="0 0 223.77 224.01">
  <defs>
    <style>
      .cls-1 {
        fill: #009bff;
      }
    </style>
  </defs>
  <path class="cls-1" d="M198.27,95.12c-.46-14.9-10.56-30.07-32.09-30.39h-17.94c.19-3.52-.14-6.48-.45-8.29-1.53-9.09-7.91-17.95-17.06-23.68-9.21-5.78-19.93-7.52-29.39-4.75-16.11,4.69-26.83,20.07-26.16,36.71h-13.74s0,0,0,0c-.04,0-.08,0-.12,0-13.08-.26-23.45,4.83-29.19,14.39-6.31,10.51-6.26,25.13.11,36.38,2.96,5.23,7.02,9.08,11.73,11.29.01,2.62.32,5.21.95,7.73,4.06,16.25,18.98,27.56,35.6,27.55.13,0,.27,0,.41-.01.02,6.46.44,11.93,4.09,18.2,5.63,9.7,15.98,15.51,27.68,15.54h.1c11.75,0,22.18-5.8,27.9-15.52,2.58-4.38,3.56-12.4,3.94-18.13,2.85.69,5.73,1.06,8.58,1.06,3.64,0,7.22-.57,10.61-1.72,16.73-5.69,26.95-22.95,24.17-40.47,7.05-6.72,10.55-16.62,10.27-25.88ZM83.68,64.42c-.18,0-.36,0-.54,0-.16,0-.45,0-.8-.01-.55-13.39,8.07-25.76,21-29.53,7.5-2.18,16.09-.74,23.57,3.95,7.44,4.66,12.6,11.69,13.79,18.8.21,1.24.54,3.89.32,7.09-.15,2.21-.57,4.69-1.48,7.17-.67,1.84-1.61,3.68-2.91,5.41-5.59,7.39-10.66,8.39-18.07,3.56-2.78-1.81-5.24-3.66-7.62-5.44-1.61-1.21-3.21-2.4-4.84-3.53-4.96-3.44-10.29-6.3-17.6-7.18-1.52-.18-3.12-.29-4.83-.29ZM80.62,154.1c0,.16-.02.45-.04.79h-.07c-13.37,0-25.37-9.07-28.63-22.12-.33-1.3-.53-2.63-.65-3.98-.2-2.36-.07-4.77.38-7.17.77-4.21,2.49-8.4,5.12-12.25,4.95-7.25,12.17-12.14,19.32-13.06.78-.1,2.1-.23,3.75-.23,4.21,0,10.59.83,15.76,5.06,7.17,5.87,7.97,10.97,2.86,18.2-1.91,2.7-3.86,5.09-5.73,7.4-1.57,1.94-3.12,3.84-4.56,5.84-3.46,4.79-6.26,10.08-7.19,17.42-.16,1.31-.28,2.66-.32,4.11ZM134.52,176.63c-4.42,7.51-12.53,11.99-21.72,11.99h-.08c-9.12-.03-17.16-4.5-21.5-11.97-3.17-5.45-3.15-9.91-3.11-17.3v-2.36c0-2.25,0-4.47,0-6.61,1.12-8.02,5.01-12.82,10.14-19.12,1.95-2.4,3.97-4.88,6.02-7.78,7.38-10.43,6.02-19.55-4.17-27.89-9.16-7.5-20.52-6.97-24.97-6.4-9.15,1.18-18.24,7.22-24.32,16.13-2.93,4.3-4.94,8.97-5.99,13.72-3.09-2.1-5.15-5-6.33-7.1-5.06-8.94-5.14-20.93-.2-29.16,4.3-7.16,11.89-10.92,22.01-10.92.35,0,.7,0,1.06.01.1,0,.19,0,.29,0h26.44c7.51,1.01,12.32,4.6,18.55,9.28,2.47,1.86,5.03,3.78,8.01,5.72,4.29,2.8,8.31,4.2,12.1,4.2,5.68,0,10.84-3.14,15.61-9.43,2.38-3.15,3.85-6.5,4.73-9.74h19.01c17.93.28,24.68,12.8,25,23.44.31,9.94-3.75,17.3-9.54,21.73-.68.01-1.3.03-1.58.04-10.5.59-16.09-3.23-23.82-8.51-2.55-1.74-5.19-3.55-8.25-5.35-11-6.49-19.98-4.38-27.45,6.47-6.72,9.75-5.25,21.03-4.3,25.42,1.94,9.02,8.7,17.58,18.09,22.9,1.1.62,2.21,1.17,3.34,1.68-.29,6.05-1.22,13.77-3.08,16.93ZM161.51,154.68c-5.18,1.76-10.98,1.76-16.63.11-2.41-.7-4.79-1.7-7.09-3.01-.03-.02-.05-.03-.08-.05-7.6-4.33-13.03-11.1-14.54-18.12-.58-2.72-2.08-12.18,3.2-19.84,3.24-4.7,6.38-6.97,10.1-6.97,2.32,0,4.86.88,7.79,2.61,2.85,1.68,5.39,3.42,7.85,5.1,4.23,2.89,8.34,5.69,13.24,7.56,4.23,1.61,9.04,2.53,15.03,2.19.16,0,.45-.02.8-.02.04.52.05,1.04.07,1.55.41,12.77-7.48,24.71-19.74,28.88Z"/>
</svg>