<svg xmlns="http://www.w3.org/2000/svg" width="1em" height="1em" viewBox="0 0 24 24"><path fill="currentColor" d="M10.46 19C9 21.07 6.15 21.59 4.09 20.15c-2.05-1.44-2.53-4.31-1.09-6.4a4.59 4.59 0 0 1 3.58-1.98l.05 1.43c-.91.07-1.79.54-2.36 1.36c-1 1.44-.69 3.38.68 4.35c1.38.96 3.31.59 4.31-.84c.31-.45.49-.94.56-1.44v-1.01l5.58-.04l.07-.11c.53-.92 1.68-1.24 2.58-.72a1.9 1.9 0 0 1 .68 2.6c-.53.91-1.69 1.23-2.59.71c-.41-.23-.7-.6-.83-1.02l-4.07.02a5 5 0 0 1-.78 1.94m7.28-7.14c2.53.31 4.33 2.58 4.02 5.07c-.31 2.5-2.61 4.27-5.14 3.96a4.63 4.63 0 0 1-3.43-2.21l1.24-.72a3.22 3.22 0 0 0 2.32 1.45c1.75.21 3.3-.98 3.51-2.65s-1.03-3.2-2.76-3.41c-.54-.06-1.06.01-1.53.18l-.85.44l-2.58-4.77h-.22a1.906 1.906 0 0 1-1.85-1.95c.03-1.04.93-1.85 1.98-1.81c1.05.06 1.88.91 1.85 1.95c-.02.44-.19.84-.46 1.15l1.9 3.51c.62-.2 1.3-.27 2-.19M8.25 9.14c-1-2.35.06-5.04 2.37-6.02c2.32-.98 5 .13 6 2.48c.59 1.37.47 2.87-.2 4.07l-1.24-.72c.42-.81.49-1.8.09-2.73c-.68-1.6-2.49-2.37-4.04-1.72c-1.56.66-2.26 2.5-1.58 4.1c.28.66.75 1.17 1.32 1.51l.39.21l-3.07 4.99c.03.05.07.11.1.19c.49.91.15 2.06-.77 2.55c-.91.49-2.06.13-2.56-.81c-.49-.93-.15-2.08.77-2.57c.39-.21.82-.26 1.23-.17l2.31-3.77c-.47-.43-.87-.97-1.12-1.59"/></svg>