<?xml version="1.0" encoding="UTF-8" standalone="no"?>
<!-- Uploaded to: SVG Repo, www.svgrepo.com, Generator: SVG Repo Mixer Tools -->

<svg
   fill="#000000"
   width="800px"
   height="800px"
   viewBox="0 0 512 512"
   version="1.1"
   id="svg2"
   sodipodi:docname="pull-request-closed.svg"
   inkscape:version="1.3 (0e150ed6c4, 2023-07-21)"
   xmlns:inkscape="http://www.inkscape.org/namespaces/inkscape"
   xmlns:sodipodi="http://sodipodi.sourceforge.net/DTD/sodipodi-0.dtd"
   xmlns="http://www.w3.org/2000/svg"
   xmlns:svg="http://www.w3.org/2000/svg"
   xmlns:rdf="http://www.w3.org/1999/02/22-rdf-syntax-ns#"
   xmlns:cc="http://creativecommons.org/ns#"
   xmlns:dc="http://purl.org/dc/elements/1.1/">
  <defs
     id="defs2" />
  <sodipodi:namedview
     id="namedview2"
     pagecolor="#ffffff"
     bordercolor="#666666"
     borderopacity="1.0"
     inkscape:showpageshadow="2"
     inkscape:pageopacity="0.0"
     inkscape:pagecheckerboard="0"
     inkscape:deskcolor="#d1d1d1"
     inkscape:zoom="1.03625"
     inkscape:cx="399.51749"
     inkscape:cy="400"
     inkscape:window-width="1916"
     inkscape:window-height="1033"
     inkscape:window-x="0"
     inkscape:window-y="23"
     inkscape:window-maximized="1"
     inkscape:current-layer="svg2" />
  <title
     id="title1">ionicons-v5-d</title>
  <path
     d="M192,96a64,64,0,1,0-96,55.39V360.61a64,64,0,1,0,64,0V151.39A64,64,0,0,0,192,96ZM128,64A32,32,0,1,1,96,96,32,32,0,0,1,128,64Zm0,384a32,32,0,1,1,32-32A32,32,0,0,1,128,448Z"
     id="path1"
     style="stroke:#000000;stroke-opacity:1;fill:#ff0000;fill-opacity:1" />
  <path
     d="M416,360.61V156a92.1,92.1,0,0,0-92-92H304V32a16,16,0,0,0-27.31-11.31l-64,64a16,16,0,0,0,0,22.62l64,64A16,16,0,0,0,304,160V128h20a28,28,0,0,1,28,28V360.61a64,64,0,1,0,64,0ZM384,448a32,32,0,1,1,32-32A32,32,0,0,1,384,448Z"
     id="path2"
     style="fill:#ff0000;fill-opacity:1;stroke:#000000;stroke-opacity:1" />
  <metadata
     id="metadata2">
    <rdf:RDF>
      <cc:Work
         rdf:about="">
        <dc:title>ionicons-v5-d</dc:title>
      </cc:Work>
    </rdf:RDF>
  </metadata>
</svg>
